<svg xmlns="http://www.w3.org/2000/svg" version="1.0" width="1000.000000pt" height="1080.000000pt" viewBox="0 0 1000.000000 1080.000000" preserveAspectRatio="xMidYMid meet">

<g transform="translate(0.000000,1080.000000) scale(0.100000,-0.100000)" fill="#000000" stroke="none">
<path d="M6247 10718 c-63 -93 -82 -153 -74 -232 8 -76 43 -143 106 -204 47 -44 1574 -1234 1813 -1413 67 -49 86 -59 145 -68 85 -14 160 -2 223 37 54 33 217 231 257 312 53 106 28 270 -54 346 -15 14 -116 94 -223 177 -107 83 -478 371 -823 639 l-628 488 -343 0 -343 0 -56 -82z" fill="#D97757"/>
<path d="M7159 10788 c0 -7 -2 -21 -4 -30 -2 -10 11 -28 33 -45 219 -165 1477 -1146 1509 -1176 26 -25 46 -37 51 -32 12 13 66 83 438 560 448 575 544 697 562 718 14 16 -48 17 -1286 17 -1035 0 -1302 -3 -1303 -12z" fill="#D97757"/>
<path d="M6032 10113 c-492 -630 -482 -614 -482 -723 0 -121 34 -183 153 -277 40 -31 95 -76 122 -100 70 -59 1229 -956 1320 -1021 41 -29 93 -59 116 -67 48 -17 128 -19 179 -5 88 24 118 55 423 446 163 209 297 382 297 386 0 3 -16 15 -35 26 -28 17 -426 325 -1775 1373 -69 53 -134 106 -144 118 -11 12 -23 21 -27 21 -4 0 -70 -80 -147 -177z" fill="#D97757"/>
<path d="M5540 8844 c-309 -329 -911 -913 -1340 -1299 -113 -102 -383 -340 -397 -350 -2 -1 -10 -66 -18 -144 -51 -488 -167 -982 -369 -1577 -160 -470 -403 -1058 -601 -1454 l-65 -130 -40 0 c-55 0 -99 -20 -137 -63 -52 -59 -61 -108 -38 -207 6 -24 2 -27 -87 -59 -142 -53 -302 -137 -358 -190 -42 -40 -50 -53 -50 -83 0 -55 38 -92 154 -148 208 -101 599 -195 1421 -339 569 -101 877 -174 1193 -282 198 -69 266 -112 302 -191 135 -297 -434 -516 -1755 -672 -295 -36 -696 -64 -1405 -101 -608 -31 -884 -42 -1592 -66 l-358 -12 0 -739 0 -738 5000 0 5000 0 0 753 0 754 -152 73 c-681 325 -1549 642 -2498 910 -856 241 -1879 436 -2865 546 -1492 165 -2045 251 -2045 318 0 8 12 24 28 36 38 31 198 105 267 125 68 20 129 71 146 122 7 23 9 62 5 106 l-6 70 157 156 c242 239 628 540 1083 840 531 352 1027 611 1505 786 72 26 137 55 146 64 8 9 60 117 114 241 124 280 418 871 562 1130 153 274 303 522 460 759 111 168 132 206 121 216 -17 17 -1175 915 -1252 972 -32 24 -61 43 -65 43 -3 0 -80 -80 -171 -176z m-525 -2018 c88 -40 135 -116 135 -215 -1 -163 -157 -277 -310 -226 -28 9 -55 13 -60 9 -4 -5 -317 -416 -696 -914 -1549 -2038 -1423 -1875 -1453 -1871 -14 1 -27 4 -29 6 -3 2 615 818 1482 1955 61 80 138 181 171 225 256 336 473 622 479 632 4 7 -4 29 -18 50 -68 104 -54 224 36 310 70 67 171 82 263 39z" fill="#D97757"/>
</g>
</svg>